<svg width="270" height="340" fill="none" xmlns="http://www.w3.org/2000/svg"><path d="M268.022 225.423H1.912c-1.055 0-1.912-1.344-1.912-3.041 0-1.627.857-2.971 1.912-2.971h266.176c1.055 0 1.912 1.344 1.912 2.971-.066 1.697-.923 3.041-1.978 3.041z" fill="#708C97"/><g clip-path="url(#clip0)"><path d="M156.396 87.527c-1.451-5.417-.659-35.87-.659-35.87l-23.868.925s-.264 30.056-.924 34.813c-.659 4.822-8.835 6.737-18.461 11.626-1.319.66-2.769 2.246-4.088 3.369 1.582 3.501 33.626 15.193 35.868 18.232 2.506 3.303 26.308-14.335 29.077-21.998-11.143-6.143-15.56-5.945-16.945-11.097z" fill="#F29D7E"/><path d="M154.484 51.129l-22.022.792s-.066 7.069-.264 15.59c1.715 4.03 5.077 10.371 11.011 10.305 6.791-.132 8.901-6.011 11.011-9.512-.066-8.984.264-17.175.264-17.175z" fill="#DD7F62"/><path d="M133.316 58.4c3.904-1.71 5.685-6.267 3.979-10.178-1.706-3.911-6.254-5.696-10.158-3.986-3.904 1.71-5.685 6.266-3.979 10.177 1.706 3.911 6.254 5.696 10.158 3.986z" fill="#F29D7E"/><path d="M134.242 51.591c-.132 2.246-2.11 3.963-4.352 3.765-2.241-.132-3.956-2.114-3.758-4.36.132-2.245 2.11-3.963 4.352-3.765 2.242.132 3.956 2.114 3.758 4.36z" fill="#ED6D53"/><path d="M125.473 49.345c-3.561-3.105-4.352-14.268 2.11-18.76 2.373-1.652 5.538-2.18 6.197-4.558 1.253-4.558 8.176-7.927 13.253-5.35 6.528 3.302 9.758.726 13.517-3.106 4.022-4.095 6.593-8.455 17.736-6.54 11.143 1.982 14.439.661 16.549-4.69 2.11-5.35 12.33-9.644 21.759-3.038 9.494 6.606 12.461 11.824 18.857 9.446 6.395-2.378 12.857-6.077 18.527-.132 5.67 5.945.989 17.505-6.395 17.373-7.385-.132-3.693 8.654-1.715 14.005 1.978 5.284-3.494 13.41-12.857 10.172-9.363-3.236-11.406-.528-14.439 4.294-3.033 4.889-11.011 4.624-14.836 1.784-3.89-2.84-8.571-5.153-14.109-1.718-5.539 3.435-7.385 5.55-13.913 2.84-6.527-2.774-7.78-1.783-11.472.199-3.692 1.982-11.143-.859-11.143-.859l-27.626-11.362z" fill="#E85F5B"/><path d="M144.001 52.78l-.462-5.68 21.692 1.386c8.704-5.086 10.748-5.02 17.605-3.236 6.857 1.783 5.934-6.342 13.187-8.786 7.186-2.444 8.637 4.03 15.23 3.831 6.66-.198 4.682-6.738 13.121-6.275 7.978.462 8.967 6.473 20.11 6.341a74.718 74.718 0 001.385 3.7c1.978 5.284-3.495 13.41-12.857 10.172-9.363-3.236-11.407-.528-14.44 4.294-3.033 4.889-11.011 4.624-14.835 1.784-3.89-2.84-8.572-5.153-14.11-1.718-5.538 3.435-7.385 5.55-13.912 2.84-6.528-2.774-7.517-2.113-11.209-.131-3.692 1.981-10.879.198-10.879.198l-9.626-8.72z" fill="#C63838"/><path d="M164.539 54.42c1.706-3.912-.075-8.468-3.979-10.178-3.904-1.71-8.452.075-10.158 3.986-1.707 3.912.075 8.468 3.979 10.178 3.903 1.71 8.451-.076 10.158-3.987z" fill="#F29D7E"/><path d="M153.363 51.591c.132 2.246 2.11 3.963 4.352 3.765 2.241-.132 3.956-2.114 3.758-4.36-.132-2.245-2.11-3.963-4.352-3.765-2.175.132-3.89 2.114-3.758 4.36z" fill="#ED6D53"/><path d="M129.231 54.63c.791 10.9 4.549 18.76 15.56 18.562 6.924-.132 12.792-7.729 12.726-18.694-.066-11.428-2.44-20.61-15.363-20.676-12.527.066-13.714 9.908-12.923 20.808z" fill="#F29D7E"/><path d="M148.286 60.707c.132 1.85 1.78 3.303 3.627 3.17 1.846-.131 3.296-1.783 3.164-3.632-.132-1.85-1.78-3.303-3.626-3.171-1.846.132-3.297 1.783-3.165 3.633zM131.473 60.641c.131 1.85 1.78 3.303 3.626 3.17 1.846-.131 3.297-1.783 3.165-3.632-.132-1.85-1.78-3.303-3.627-3.171a3.399 3.399 0 00-3.164 3.633zM143.538 54.498l-2.637 5.218c-.33.595.132 1.321.791 1.387l3.165.066-1.319-6.671z" fill="#ED6D53"/><path d="M164.967 53.243c-6.263 2.576-9.296.33-12.198-1.388-2.901-1.651-2.505-9.644-6.791-10.965-4.285-1.321-5.34 2.047-9.956.858-5.34-1.387-6.461 1.85-6.461 1.85s-.132-3.963 7.78-6.804c7.912-2.84 16.945-2.906 21.626 2.048 1.517 1.585 1.451 4.03 3.165 5.615 4.286 3.831 2.835 8.786 2.835 8.786z" fill="#DD7F62"/><path d="M154.682 50.732c-.396-.066-.725-.132-1.121-.198-.33-.066-.725-.132-1.055-.198-.725-.132-1.385-.132-2.11-.132-.725 0-1.385.066-2.11.198-.659.132-1.384.33-1.978.66h-.066a.316.316 0 01-.395-.131c-.066-.133 0-.265.066-.33.593-.595 1.318-.992 2.044-1.256a7.449 7.449 0 012.373-.396c.791 0 1.583.132 2.374.33.395.066.725.264 1.121.396.329.199.725.33 1.055.529.131.066.197.264.131.396-.065.132-.197.198-.329.132z" fill="#DD7F62"/><path d="M148.418 54.431c.462.067.923.199 1.385.265.461.066.923.066 1.318.066.462 0 .857-.066 1.319-.132.396-.133.857-.265 1.253-.463.066-.066.198 0 .263.066.066.066 0 .132 0 .199-.725.792-1.78 1.122-2.835 1.122a5.607 5.607 0 01-1.516-.198c-.264-.066-.462-.198-.725-.264-.198-.132-.462-.198-.66-.33-.066-.066-.132-.198-.066-.264.132 0 .198-.066.264-.066zM133.253 54.431c.462.067.923.199 1.385.265.461.066.923.066 1.318.066.462 0 .857-.066 1.319-.132.396-.133.857-.265 1.253-.463.066-.066.197 0 .263.066s0 .132 0 .199c-.725.792-1.78 1.122-2.835 1.122a5.607 5.607 0 01-1.516-.198c-.264-.066-.462-.198-.725-.264-.198-.132-.462-.198-.66-.33-.066-.066-.132-.198-.066-.264.132 0 .198-.066.264-.066z" fill="#1A1A1A"/><path d="M140.11 50.534l-.989-.198c-.329-.066-.659-.132-.923-.132-.593-.066-1.253-.132-1.846-.132-.593 0-1.187.066-1.846.132-.594.066-1.187.264-1.78.462h-.066a.317.317 0 01-.396-.132c-.066-.132 0-.198.066-.33.528-.529 1.187-.859 1.846-1.123a7.423 7.423 0 012.11-.33c.725 0 1.385.132 2.044.33.33.066.659.264.989.33.33.132.593.33.923.529.132.066.198.264.066.396 0 .198-.066.198-.198.198z" fill="#DD7F62"/><path d="M139.847 64.208c0 .529 1.78.991 3.956.925 2.176-.066 3.89-.462 3.89-1.123 0-.727-1.78.132-3.89.198-2.242 0-3.956-.793-3.956 0z" fill="#ED6D53"/><path d="M128.308 65.926c-.198 0-.395-.198-.395-.397v-8.257c0-.198.197-.396.395-.396s.396.198.396.396v8.257c0 .199-.132.397-.396.397zM158.44 66.256a.426.426 0 01-.396-.396v-8.191c0-.199.198-.397.396-.397s.396.198.396.397v8.257c0 .132-.198.33-.396.33z" fill="#1B4E61"/><path d="M165.1 48.486c-6.264 2.577-8.704 3.303-11.605 1.586-2.901-1.652-2.505-9.645-6.791-10.966-4.286-1.32-5.275 2.576-9.956 1.982-5.011-.595-7.319 1.651-7.319 1.651s-1.648-7.53 6.264-10.37c7.912-2.841 19.385-.265 24.066 4.623 4.549 4.955 5.341 11.494 5.341 11.494z" fill="#E85F5B"/><path d="M117.363 219.378c-14.505 0-18.198-15.325-15.099-31.047 3.626-18.43 22.022-27.282 39.165-27.282s34.945 10.569 39.824 28.669c3.758 14.071-1.253 29.66-15.758 29.66h-48.132z" fill="#035E80"/><path d="M162.989 218.453h-46.615c-3.231 0-5.802-2.642-5.802-5.813v-14.4a5.816 5.816 0 015.802-5.813h46.615c3.231 0 5.803 2.642 5.803 5.813v14.4c0 3.171-2.638 5.813-5.803 5.813z" fill="#04495E"/><path d="M126 92.283s-14.505 5.284-19.648 10.701c-4.352 4.558-6.066 7.399-6.066 7.399l14.835 48.288h52.682l18.461-48.355s-4.022-7.332-12.989-12.22c-8.967-4.889-11.538-5.35-12.527-6.011 0 0-12.857 15.721-16.154 15.853-3.363.199-18.594-15.655-18.594-15.655z" fill="#E289A9"/><path d="M144.528 109.392c4.022.066 15.428-14.533 17.209-16.845-.462-.198-.792-.33-.989-.462 0 0-12.858 15.721-16.154 15.853-3.297.132-18.528-15.655-18.528-15.655s-.395.132-1.121.396c1.649 1.85 15.561 16.647 19.583 16.713z" fill="#FAF8DC"/><path d="M100.616 110.515c2.242 8.521 10.549 9.512 12 20.544-7.253 13.409-14.704 33.491-14.704 33.491s28.22 1.453 39.627 4.888l-.33 13.41H91.121c-10.088 0-14.9-6.87-11.67-22.46 4.088-19.553 15.165-41.55 21.165-49.873zM185.737 110.515c-.725 8.719-14.308 14.731-12 20.544 5.341 13.277 13.78 33.821 13.78 33.821s-27.956-.792-38.373 2.51v15.524h46.022c10.087 0 15.033-7.597 11.406-23.054-3.494-15.193-10.681-35.143-20.835-49.345zM112.616 194.606c11.341-1.717 15.824 9.249 19.978 26.49 4.154 17.241 14.967 63.415 20.374 79.269 5.011 14.599-.858 10.041-3.363 17.968-2.308 7.332-6.066 12.815-11.67 13.145-3.956.199-.066-11.89 4.351-21.072-.593-8.522-9.56-25.234-23.538-55.489-13.714-29.792-14.044-34.482-14.835-44.523-.726-10.041 4.549-15.193 8.703-15.788z" fill="#F29D7E"/><path d="M115.121 209.469a4.817 4.817 0 004.813-4.822 4.817 4.817 0 00-4.813-4.822 4.818 4.818 0 00-4.813 4.822 4.818 4.818 0 004.813 4.822zM81.824 173.138c-1.055 0-2.043.33-2.9.792.988 4.36 3.428 7.069 7.12 8.258.791-.925 1.253-2.18 1.253-3.567.066-3.039-2.44-5.483-5.473-5.483zM207.099 174.591c-.923-.595-1.978-.991-3.165-.991a5.464 5.464 0 00-5.472 5.483c0 1.189.396 2.312 1.055 3.237 3.758-1.057 6.395-3.633 7.582-7.729z" fill="#ED6D53"/><path d="M152.374 194.21c10.615 0 10.418 21.073 9.758 32.303-.593 11.229-7.318 46.702-15.626 70.681s-9.56 27.943-9.758 34.813c-.198 6.87-7.912 8.125-13.121 7.927-5.209-.198-5.209-1.453.198-16.25 5.406-14.797 12.263-56.546 13.516-81.119 1.253-24.574-4.154-48.355 15.033-48.355z" fill="#F6B7A0"/><path d="M151.241 209.61a4.822 4.822 0 003.98-5.533 4.814 4.814 0 00-5.522-3.987 4.82 4.82 0 00-3.98 5.532 4.815 4.815 0 005.522 3.988z" fill="#ED6D53"/><path d="M102 202.798c4.418-7.399 53.869-7.597 68.77-.925l-.923-21.073-63.429 1.189L102 202.798z" fill="#035E80"/><path d="M173.868 182.386h-68.637a4.352 4.352 0 01-4.352-4.36V134.89c0-2.378 1.912-4.36 4.352-4.36h68.637a4.352 4.352 0 014.352 4.36v43.136c0 2.444-1.912 4.36-4.352 4.36z" fill="#FCFBEB"/><path d="M178.22 183.377h-77.275v-47.496c0-2.378 1.912-4.36 4.352-4.36h68.637a4.352 4.352 0 014.352 4.36v47.496h-.066z" fill="#E6E5CE"/><path d="M178.22 183.377h-77.275v1.519c0 .528.396.925.923.925h75.429a.903.903 0 00.923-.925v-1.519z" fill="#184657"/><path d="M139.253 164.088c3.75 0 6.791-3.047 6.791-6.804 0-3.758-3.041-6.804-6.791-6.804-3.751 0-6.792 3.046-6.792 6.804 0 3.757 3.041 6.804 6.792 6.804z" fill="#FAF8DC"/><path d="M228.858 220.501c-1.187-.66-1.253 1.057 1.714-10.305 1.187.595 1.187-1.057-1.714 10.305z" fill="url(#paint0_linear)"/><path d="M232.286 220.303c-1.121-.528-1.187 1.123 1.385-9.843 1.121.529 1.252-1.189-1.385 9.843z" fill="url(#paint1_linear)"/><path d="M237.495 197.315V184.17c0-7.135-3.824-11.098-8.572-11.098-4.747 0-8.571 3.963-8.571 11.098v13.145c0 8.984 4.813 13.674 10.813 13.674h4.418c5.934 0 10.813-4.69 10.813-13.674h-8.901z" fill="#FFEEE3"/><path d="M216.264 182.848l5.407 3.105v-6.143l-5.407 3.038z" fill="#F69548"/><path d="M226.945 181.395c0 .859-.395 1.519-.923 1.519-.527 0-.923-.66-.923-1.519 0-.859.396-1.519.923-1.519.528.066.923.726.923 1.519z" fill="#000"/><path d="M244.418 187.274s3.165 8.72-3.89 13.872c-4.681 3.435-10.154 3.898-12 1.189-1.846-2.708.461-7.53 5.275-10.899 4.747-3.303 10.615-4.162 10.615-4.162z" fill="#F2D79D"/></g><path d="M71.818 204.195c0-2.745-1.291-5.158-3.228-6.511-1.068-.74-1.64-2.157-1.379-3.536.075-.383.112-.791.112-1.2 0-2.732-1.714-5.017-3.999-5.591-.608-.153-1.018-.779-.956-1.481.025-.306.037-.6.013-.843-.187-1.583-.981-2.451-2.136-3.153-.596-.357-.882-1.123-.708-1.864.087-.357.124-.74.136-1.123.075-2.923-1.34-4.123-2.31-4.659-.471-.268-.819-.754-.968-1.328-.385-1.557-1.701-2.694-3.229-2.579-1.502.115-2.732 1.43-2.893 3.115v.038c-.05.575-.485.996-1.006.971-.174-.013-.335 0-.51.012-1.936.179-3.464 1.902-3.6 4.034-.025.345-.013.677.037.996.1.74-.187 1.481-.758 1.877-1.068.753-1.9 1.902-2.347 3.255-.174.523-.559.919-1.043 1.072-2.148.664-3.713 2.872-3.713 5.477 0 .702.112 1.378.323 1.991.323.958-.087 2.017-.944 2.413-2.273 1.059-3.874 3.574-3.874 6.498 0 1.187.26 2.31.72 3.28.708 1.481.434 3.319-.67 4.443-1.578 1.596-2.559 3.893-2.559 6.446v3.166h42.123v-3.166c0-1.289-.72-2.502-1.577-3.599-.932-1.188-.994-2.937-.212-4.251.733-1.188 1.155-2.643 1.155-4.2z" fill="#63BEA6"/><path d="M75.761 206.047c0-2.405-1.144-4.522-2.866-5.711-.947-.652-1.452-1.892-1.218-3.107.061-.338.098-.688.098-1.052 0-2.405-1.513-4.409-3.543-4.91-.541-.137-.898-.688-.849-1.29.025-.275.037-.526 0-.739-.16-1.39-.873-2.141-1.882-2.768-.53-.313-.788-.989-.628-1.628.074-.313.111-.651.123-.989.062-2.556-1.18-3.62-2.042-4.096-.418-.238-.726-.664-.849-1.165-.332-1.365-1.5-2.355-2.866-2.254-1.33.1-2.424 1.252-2.572 2.73v.038c-.049.501-.43.876-.886.851-.147-.012-.295 0-.455.013-1.71.15-3.063 1.666-3.174 3.532-.025.301-.012.589.037.864.086.651-.172 1.29-.664 1.641-.948.664-1.686 1.666-2.08 2.856-.147.463-.492.814-.922.939-1.895.589-3.298 2.518-3.298 4.81 0 .613.099 1.202.283 1.753.283.839-.086 1.779-.836 2.117-2.018.927-3.433 3.131-3.433 5.711 0 1.04.234 2.017.64 2.881.627 1.303.394 2.906-.603 3.895-1.39 1.391-2.276 3.42-2.276 5.662v2.78h37.315v-2.78c0-1.128-.64-2.192-1.402-3.157-.825-1.039-.886-2.567-.185-3.732.664-1.052 1.034-2.33 1.034-3.695z" fill="#41B093"/><defs><linearGradient id="paint0_linear" x1="229.704" y1="1243.9" x2="229.704" y2="146.921" gradientUnits="userSpaceOnUse"><stop stop-color="#F8B33E"/><stop offset="1" stop-color="#E72552"/></linearGradient><linearGradient id="paint1_linear" x1="232.992" y1="1243.89" x2="232.992" y2="146.922" gradientUnits="userSpaceOnUse"><stop stop-color="#F8B33E"/><stop offset="1" stop-color="#E72552"/></linearGradient><clipPath id="clip0"><path fill="#fff" transform="translate(78.462)" d="M0 0h178.088v340H0z"/></clipPath></defs></svg>